# xmcd
#
# Track frame offsets:
#	150
#	27472
#	61827
#	77180
#	102547
#	119707
#	147815
#	172082
#	190267
#	219835
#	238225
#	263572
#	286075
#
# Disc length: 4142 seconds
#
# Revision: 0
# Processed by: cddbd v1.5PL3 Copyright (c) Steve Scherf et al.
# Submitted via: dBpowerAMP V4.0
#
DISCID=c0102c0d
DTITLE=Various Artist - Straight To Dat 2
DYEAR=2003
DGENRE=Electronic
TTITLE0=Various Artist - D&B - The Prophecy
TTITLE1=Various Artist - Acimo-Framework
TTITLE2=Various Artist - Freestyle - Gotta Need
TTITLE3=Various Artist - Earth Deuley - Hi Fi
TTITLE4=Various Artist - Triangle Orchestra - Viewfinder
TTITLE5=Various Artist - DJ Rasoul - You Feel That
TTITLE6=Various Artist - Physics - City Lights
TTITLE7=Various Artist - S.U.M.O. - Deepsteppers
TTITLE8=Various Artist - Junkie Sartre - You can turn it on
TTITLE9=Various Artist - Pat Maori - Red Season
TTITLE10=Various Artist - Olivier "Livo" Gaudin- Standing with a suitcase
TTITLE11=Various Artist - Evanz - M.O.E.B.
TTITLE12=Various Artist - D&B - Blue Winds
EXTD=Submit by Phoenix
EXTT0=
EXTT1=
EXTT2=
EXTT3=
EXTT4=
EXTT5=
EXTT6=
EXTT7=
EXTT8=
EXTT9=
EXTT10=
EXTT11=
EXTT12=
PLAYORDER=
